# xmcd
#
# Track frame offsets: 
#        150
#        18146
#        37114
#        53248
#        74720
#        95708
#        113491
#        134667
#        156188
#        171620
#
# Disc length: 2576 seconds
#
# Revision: 0
# Processed by: cddbd v1.5.2PL0 Copyright (c) Steve Scherf et al.
# Submitted via: ExactAudioCopy v1.0b3
#
DISCID=920a0e0a
DTITLE=Tuan Vu - Nguoi Da Nhu Mo
DYEAR=1999
DGENRE=
TTITLE0=Khong bao gio ngan cach
TTITLE1=Mai lo hai minh xa nhau
TTITLE2=Mo hoa
TTITLE3=Nguoi da nhu mo
TTITLE4=Hong Truc - Con duong xua em di
TTITLE5=Thoi
TTITLE6=Ao anh
TTITLE7=Thanh Huyen - Tieng long ni non
TTITLE8=Chieu tim
TTITLE9=Nang chieu
EXTD=
EXTT0=
EXTT1=
EXTT2=
EXTT3=
EXTT4=
EXTT5=
EXTT6=
EXTT7=
EXTT8=
EXTT9=
PLAYORDER=
